# xmcd CD database file
#
# Track frame offsets:
#	150
#	24760
#	49940
#	69087
#	88730
#	105475
#	123712
#	142162
#	162660
#	185157
#	205480
#	226097
#	251682
#	272460
#	294752
#	319795
#
# Disc length: 4487 seconds
#
# Revision: 0
# Processed by: cddbd v1.5.2PL0 Copyright (c) Steve Scherf et al.
# Submitted via: CD2WAV32(JP) R3.22
#
DISCID=e6118510
DTITLE=Various Artist - アニメわんわん ～ VictorAnimeSongCollection II ～
DYEAR=2005
DGENRE=Anime
TTITLE0=Fire Bomber featuring BASARA NEKKI/SEVENTH MOON
TTITLE1=新居昭乃/WANNA BE AN ANGEL
TTITLE2=坂本真綾/プラチナ
TTITLE3=NITRO(優香・吉井怜・堀越のり・唐沢美帆)/CALLING
TTITLE4=菅井えり/Silent Wind
TTITLE5=ALI PROJECT/コッペリアの柩
TTITLE6=山野裕子/ビーグル
TTITLE7=井出泰彰/Reckless Fire
TTITLE8=福山芳樹/キングゲイナー・オーバー！
TTITLE9=See-Saw/Obsession
TTITLE10=ROUND TABLE featuring Nino/Let Me Be With You
TTITLE11=有坂美香/月迷風影
TTITLE12=Hitomi/Over The Sky
TTITLE13=Origa/inner universe
TTITLE14=坂本真綾/tune the rainbow
TTITLE15=FictionJunction YUUKA/nowhere
EXTD=
EXTT0=
EXTT1=
EXTT2=
EXTT3=
EXTT4=
EXTT5=
EXTT6=
EXTT7=
EXTT8=
EXTT9=
EXTT10=
EXTT11=
EXTT12=
EXTT13=
EXTT14=
EXTT15=
PLAYORDER=
